<svg width="18" height="18" viewBox="0 0 18 18" fill="none" xmlns="http://www.w3.org/2000/svg">
<g clip-path="url(#clip0_217_313)">
<path d="M17.4023 16.3863L13.2117 12.1957C14.2348 10.9477 14.8465 9.35508 14.8465 7.61484C14.8465 3.62461 11.6086 0.386719 7.61836 0.386719C3.62461 0.386719 0.386719 3.62461 0.386719 7.61836C0.386719 11.6121 3.62461 14.85 7.61836 14.85C9.35508 14.85 10.9512 14.2383 12.1992 13.2152L16.3863 17.4023C16.6676 17.6836 17.1211 17.6836 17.4023 17.4023C17.6836 17.1211 17.6836 16.6676 17.4023 16.3863ZM1.82109 7.61836C1.82109 4.41914 4.41563 1.82461 7.61484 1.82461C10.8141 1.82461 13.4086 4.41914 13.4086 7.61836C13.4086 10.8176 10.8141 13.4121 7.61484 13.4121C4.41563 13.4121 1.82109 10.8176 1.82109 7.61836Z" fill="#D9D9D9"/>
</g>
<defs>
<clipPath id="clip0_217_313">
<rect width="18" height="18" fill="white"/>
</clipPath>
</defs>
</svg>
